<!DOCTYPE svg PUBLIC "-//W3C//DTD SVG 1.1//EN" "http://www.w3.org/Graphics/SVG/1.1/DTD/svg11.dtd">
                <svg xmlns="http://www.w3.org/2000/svg" xmlns:xlink="http://www.w3.org/1999/xlink" 
                width="1114" height="2352" shape-rendering="optimizeSpeed">
                
            <g>
                <rect x="50" y="80"
            width="180.4" height="30"
            style="fill:#fff; stroke:#444; stroke-width:1" />
                    
                <line x1="55" y1="80" x2="55" y2="110"
                style="fill:#fff; stroke:#444; stroke-width:1" />
                <line x1="225.4" y1="80" x2="225.4" y2="110"
                style="fill:#fff; stroke:#444; stroke-width:1" />
             
                <title>import from&apos;react&apos;</title>
            <text x="70" y="100"
                font-family="monospace" font-size="13" fill="#222">
                <tspan x="70" y="100">import from&apos;react&apos;</tspan>
            </text>
                
            </g>
                <g>
                   <rect x="87" y="128.5"
            width="69" height="30"
            rx="2" ry="2"
            style="fill:#81d4fa; stroke:#444; stroke-width:1" />
                   <title>React</title>
            <text x="102" y="148.5"
                font-family="monospace" font-size="13" fill="#222">
                <tspan x="102" y="148.5">React</tspan>
            </text>
                   
                   
                </g>
                <g>
                   <rect x="87" y="177"
            width="100.2" height="30"
            rx="2" ry="2"
            style="fill:#81d4fa; stroke:#444; stroke-width:1" />
                   <title>Component</title>
            <text x="102" y="197"
                font-family="monospace" font-size="13" fill="#222">
                <tspan x="102" y="197">Component</tspan>
            </text>
                   
                   
                </g>
            <g>
                <rect x="50" y="240.5"
            width="266.2" height="30"
            style="fill:#fff; stroke:#444; stroke-width:1" />
                    
                <line x1="55" y1="240.5" x2="55" y2="270.5"
                style="fill:#fff; stroke:#444; stroke-width:1" />
                <line x1="311.2" y1="240.5" x2="311.2" y2="270.5"
                style="fill:#fff; stroke:#444; stroke-width:1" />
             
                <title>import from&quot;react-router-dom&quot;</title>
            <text x="70" y="260.5"
                font-family="monospace" font-size="13" fill="#222">
                <tspan x="70" y="260.5">import from&quot;react-router-dom&quot;</tspan>
            </text>
                
            </g>
                <g>
                   <rect x="87" y="289"
            width="61.2" height="30"
            rx="2" ry="2"
            style="fill:#81d4fa; stroke:#444; stroke-width:1" />
                   <title>Link</title>
            <text x="102" y="309"
                font-family="monospace" font-size="13" fill="#222">
                <tspan x="102" y="309">Link</tspan>
            </text>
                   
                   
                </g>
            <g>
                <rect x="50" y="352.5"
            width="258.4" height="30"
            style="fill:#fff; stroke:#444; stroke-width:1" />
                    
                <line x1="55" y1="352.5" x2="55" y2="382.5"
                style="fill:#fff; stroke:#444; stroke-width:1" />
                <line x1="303.4" y1="352.5" x2="303.4" y2="382.5"
                style="fill:#fff; stroke:#444; stroke-width:1" />
             
                <title>import from&apos;react-bootstrap&apos;</title>
            <text x="70" y="372.5"
                font-family="monospace" font-size="13" fill="#222">
                <tspan x="70" y="372.5">import from&apos;react-bootstrap&apos;</tspan>
            </text>
                
            </g>
                <g>
                   <rect x="87" y="401"
            width="61.2" height="30"
            rx="2" ry="2"
            style="fill:#81d4fa; stroke:#444; stroke-width:1" />
                   <title>Form</title>
            <text x="102" y="421"
                font-family="monospace" font-size="13" fill="#222">
                <tspan x="102" y="421">Form</tspan>
            </text>
                   
                   
                </g>
                <g>
                   <rect x="87" y="449.5"
            width="76.8" height="30"
            rx="2" ry="2"
            style="fill:#81d4fa; stroke:#444; stroke-width:1" />
                   <title>Button</title>
            <text x="102" y="469.5"
                font-family="monospace" font-size="13" fill="#222">
                <tspan x="102" y="469.5">Button</tspan>
            </text>
                   
                   
                </g>
            <g>
                <rect x="50" y="513"
            width="250.6" height="30"
            style="fill:#fff; stroke:#444; stroke-width:1" />
                    
                <line x1="55" y1="513" x2="55" y2="543"
                style="fill:#fff; stroke:#444; stroke-width:1" />
                <line x1="295.6" y1="513" x2="295.6" y2="543"
                style="fill:#fff; stroke:#444; stroke-width:1" />
             
                <title>import from&apos;../../Main.css&apos;</title>
            <text x="70" y="533"
                font-family="monospace" font-size="13" fill="#222">
                <tspan x="70" y="533">import from&apos;../../Main.css&apos;</tspan>
            </text>
                
            </g>
            <g>
                <rect x="50" y="561.5"
            width="227.2" height="30"
            style="fill:#fff; stroke:#444; stroke-width:1" />
                    
                <line x1="55" y1="561.5" x2="55" y2="591.5"
                style="fill:#fff; stroke:#444; stroke-width:1" />
                <line x1="272.2" y1="561.5" x2="272.2" y2="591.5"
                style="fill:#fff; stroke:#444; stroke-width:1" />
             
                <title>import from&apos;sweetalert2&apos;</title>
            <text x="70" y="581.5"
                font-family="monospace" font-size="13" fill="#222">
                <tspan x="70" y="581.5">import from&apos;sweetalert2&apos;</tspan>
            </text>
                
            </g>
                <g>
                   <rect x="87" y="610"
            width="61.2" height="30"
            rx="2" ry="2"
            style="fill:#81d4fa; stroke:#444; stroke-width:1" />
                   <title>Swal</title>
            <text x="102" y="630"
                font-family="monospace" font-size="13" fill="#222">
                <tspan x="102" y="630">Swal</tspan>
            </text>
                   
                   
                </g>
            <g>
                <rect x="50" y="673.5"
            width="227.2" height="30"
            style="fill:#fff; stroke:#444; stroke-width:1" />
                    
                <line x1="55" y1="673.5" x2="55" y2="703.5"
                style="fill:#fff; stroke:#444; stroke-width:1" />
                <line x1="272.2" y1="673.5" x2="272.2" y2="703.5"
                style="fill:#fff; stroke:#444; stroke-width:1" />
             
                <title>import from&apos;./api_admin&apos;</title>
            <text x="70" y="693.5"
                font-family="monospace" font-size="13" fill="#222">
                <tspan x="70" y="693.5">import from&apos;./api_admin&apos;</tspan>
            </text>
                
            </g>
                <g>
                   <rect x="87" y="722"
            width="123.6" height="30"
            rx="2" ry="2"
            style="fill:#81d4fa; stroke:#444; stroke-width:1" />
                   <title>registerUser</title>
            <text x="102" y="742"
                font-family="monospace" font-size="13" fill="#222">
                <tspan x="102" y="742">registerUser</tspan>
            </text>
                   
                   
                </g>
            <g>
                <rect x="50" y="785.5"
            width="338.59999999999997" height="30"
            style="fill:#80cbc4; stroke:#444; stroke-width:1" />
                    
                <line x1="60" y1="785.5" x2="60" y2="815.5"
                style="fill:#80cbc4; stroke:#444; stroke-width:1" />
                <line x1="378.59999999999997" y1="785.5" x2="378.59999999999997" y2="815.5"
                style="fill:#80cbc4; stroke:#444; stroke-width:1" />
             
                <title>class Registration  extends Component</title>
            <text x="75" y="805.5"
                font-family="monospace" font-size="13" fill="#222">
                <tspan x="75" y="805.5">class Registration  extends Component</tspan>
            </text>
                
            </g>
            <g>
                <rect x="87" y="834"
            width="151.39999999999998" height="30"
            style="fill:#a5d6a7; stroke:#444; stroke-width:1" />
                    
                <line x1="97" y1="834" x2="97" y2="864"
                style="fill:#a5d6a7; stroke:#444; stroke-width:1" />
                <line x1="228.39999999999998" y1="834" x2="228.39999999999998" y2="864"
                style="fill:#a5d6a7; stroke:#444; stroke-width:1" />
             
                <title>constructor()</title>
            <text x="112" y="854"
                font-family="monospace" font-size="13" fill="#222">
                <tspan x="112" y="854">constructor()</tspan>
            </text>
                
            </g>
                <g>
                   <rect x="124" y="882.5"
            width="84.6" height="30"
            rx="2" ry="2"
            style="fill:#C5E1A5; stroke:#444; stroke-width:1" />
                   <title>super()</title>
            <text x="139" y="902.5"
                font-family="monospace" font-size="13" fill="#222">
                <tspan x="139" y="902.5">super()</tspan>
            </text>
                   
                   
                </g>
                <g>
                   <rect x="124" y="931"
            width="154.8" height="30"
            rx="3" ry="3"
            style="fill:#90caf9; stroke:#444; stroke-width:1" />
                   <title>this.state = {*}</title>
            <text x="139" y="951"
                font-family="monospace" font-size="13" fill="#222">
                <tspan x="139" y="951">this.state = {*}</tspan>
            </text>
                   
                   
                </g>
                <g>
                   <rect x="161" y="979.5"
            width="92.4" height="30"
            rx="2" ry="2"
            style="fill:#90caf9; stroke:#444; stroke-width:1" />
                   <title>name: &quot;&quot;</title>
            <text x="176" y="999.5"
                font-family="monospace" font-size="13" fill="#222">
                <tspan x="176" y="999.5">name: &quot;&quot;</tspan>
            </text>
                   
                   
                </g>
                <g>
                   <rect x="161" y="1028"
            width="123.6" height="30"
            rx="2" ry="2"
            style="fill:#90caf9; stroke:#444; stroke-width:1" />
                   <title>username: &quot;&quot;</title>
            <text x="176" y="1048"
                font-family="monospace" font-size="13" fill="#222">
                <tspan x="176" y="1048">username: &quot;&quot;</tspan>
            </text>
                   
                   
                </g>
                <g>
                   <rect x="161" y="1076.5"
            width="123.6" height="30"
            rx="2" ry="2"
            style="fill:#90caf9; stroke:#444; stroke-width:1" />
                   <title>password: &quot;&quot;</title>
            <text x="176" y="1096.5"
                font-family="monospace" font-size="13" fill="#222">
                <tspan x="176" y="1096.5">password: &quot;&quot;</tspan>
            </text>
                   
                   
                </g>
                <g>
                   <rect x="161" y="1125"
            width="178.2" height="30"
            rx="2" ry="2"
            style="fill:#90caf9; stroke:#444; stroke-width:1" />
                   <title>retypedPassword: &quot;&quot;</title>
            <text x="176" y="1145"
                font-family="monospace" font-size="13" fill="#222">
                <tspan x="176" y="1145">retypedPassword: &quot;&quot;</tspan>
            </text>
                   
                   
                </g>
                <g>
                   <rect x="87" y="1173.5"
            width="92.4" height="30"
            rx="3" ry="3"
            style="fill:#90caf9; stroke:#444; stroke-width:1" />
                   <title>onChange</title>
            <text x="102" y="1193.5"
                font-family="monospace" font-size="13" fill="#222">
                <tspan x="102" y="1193.5">onChange</tspan>
            </text>
                   
                   
                </g>
            <g>
                <rect x="87" y="1237"
            width="96.8" height="30"
            style="fill:#a5d6a7; stroke:#444; stroke-width:1" />
                    
                <line x1="97" y1="1237" x2="97" y2="1267"
                style="fill:#a5d6a7; stroke:#444; stroke-width:1" />
                <line x1="173.8" y1="1237" x2="173.8" y2="1267"
                style="fill:#a5d6a7; stroke:#444; stroke-width:1" />
             
                <title>(e) =&gt;</title>
            <text x="112" y="1257"
                font-family="monospace" font-size="13" fill="#222">
                <tspan x="112" y="1257">(e) =&gt;</tspan>
            </text>
                
            </g>
                <g>
                   <rect x="124" y="1285.5"
            width="170.4" height="30"
            rx="2" ry="2"
            style="fill:#C5E1A5; stroke:#444; stroke-width:1" />
                   <title>this.setState({*})</title>
            <text x="139" y="1305.5"
                font-family="monospace" font-size="13" fill="#222">
                <tspan x="139" y="1305.5">this.setState({*})</tspan>
            </text>
                   
                   
                </g>
                <g>
                   <rect x="161" y="1334"
            width="53.4" height="30"
            rx="3" ry="3"
            style="fill:#90caf9; stroke:#444; stroke-width:1" />
                   <title>{*}</title>
            <text x="176" y="1354"
                font-family="monospace" font-size="13" fill="#222">
                <tspan x="176" y="1354">{*}</tspan>
            </text>
                   
                   
                </g>
                <g>
                   <rect x="198" y="1382.5"
            width="256.2" height="30"
            rx="2" ry="2"
            style="fill:#90caf9; stroke:#444; stroke-width:1" />
                   <title>[e.target.id]: e.target.value</title>
            <text x="213" y="1402.5"
                font-family="monospace" font-size="13" fill="#222">
                <tspan x="213" y="1402.5">[e.target.id]: e.target.value</tspan>
            </text>
                   
                   
                </g>
                <g>
                   <rect x="87" y="1431"
            width="76.8" height="30"
            rx="3" ry="3"
            style="fill:#90caf9; stroke:#444; stroke-width:1" />
                   <title>verify</title>
            <text x="102" y="1451"
                font-family="monospace" font-size="13" fill="#222">
                <tspan x="102" y="1451">verify</tspan>
            </text>
                   
                   
                </g>
            <g>
                <rect x="87" y="1494.5"
            width="96.8" height="30"
            style="fill:#a5d6a7; stroke:#444; stroke-width:1" />
                    
                <line x1="97" y1="1494.5" x2="97" y2="1524.5"
                style="fill:#a5d6a7; stroke:#444; stroke-width:1" />
                <line x1="173.8" y1="1494.5" x2="173.8" y2="1524.5"
                style="fill:#a5d6a7; stroke:#444; stroke-width:1" />
             
                <title>(e) =&gt;</title>
            <text x="112" y="1514.5"
                font-family="monospace" font-size="13" fill="#222">
                <tspan x="112" y="1514.5">(e) =&gt;</tspan>
            </text>
                
            </g>
                <g>
                   <rect x="124" y="1543"
            width="170.4" height="30"
            rx="2" ry="2"
            style="fill:#C5E1A5; stroke:#444; stroke-width:1" />
                   <title>e.preventDefault()</title>
            <text x="139" y="1563"
                font-family="monospace" font-size="13" fill="#222">
                <tspan x="139" y="1563">e.preventDefault()</tspan>
            </text>
                   
                   
                </g>
                <g>
                   <rect x="124" y="1591.5"
            width="209.4" height="30"
            rx="3" ry="3"
            style="fill:#90caf9; stroke:#444; stroke-width:1" />
                   <title>const {...} = undefined</title>
            <text x="139" y="1611.5"
                font-family="monospace" font-size="13" fill="#222">
                <tspan x="139" y="1611.5">const {...} = undefined</tspan>
            </text>
                   
                   
                </g>
                <g>
                   <rect x="161" y="1640"
            width="61.2" height="30"
            rx="2" ry="2"
            style="fill:#90caf9; stroke:#444; stroke-width:1" />
                   <title>name</title>
            <text x="176" y="1660"
                font-family="monospace" font-size="13" fill="#222">
                <tspan x="176" y="1660">name</tspan>
            </text>
                   
                   
                </g>
                <g>
                   <rect x="161" y="1688.5"
            width="92.4" height="30"
            rx="2" ry="2"
            style="fill:#90caf9; stroke:#444; stroke-width:1" />
                   <title>username</title>
            <text x="176" y="1708.5"
                font-family="monospace" font-size="13" fill="#222">
                <tspan x="176" y="1708.5">username</tspan>
            </text>
                   
                   
                </g>
                <g>
                   <rect x="161" y="1737"
            width="92.4" height="30"
            rx="2" ry="2"
            style="fill:#90caf9; stroke:#444; stroke-width:1" />
                   <title>password</title>
            <text x="176" y="1757"
                font-family="monospace" font-size="13" fill="#222">
                <tspan x="176" y="1757">password</tspan>
            </text>
                   
                   
                </g>
                <g>
                   <rect x="161" y="1785.5"
            width="147" height="30"
            rx="2" ry="2"
            style="fill:#90caf9; stroke:#444; stroke-width:1" />
                   <title>retypedPassword</title>
            <text x="176" y="1805.5"
                font-family="monospace" font-size="13" fill="#222">
                <tspan x="176" y="1805.5">retypedPassword</tspan>
            </text>
                   
                   
                </g><g>
            <rect x="154" y="1849"
            width="294" height="30"
            rx="3" ry="3"
            style="fill:#ce93d8; stroke:#444; stroke-width:1" />                
            <polygon points="124,1864 154,1834 184,1864 154,1894"
            style="fill:#ce93d8; stroke:#444; stroke-width:1" />
            <title>(password !== retypedPassword)</title>
            <text x="199" y="1869"
                font-family="monospace" font-size="13" fill="#222">
                <tspan x="199" y="1869">(password !== retypedPassword)</tspan>
            </text>
            
            <text x="146.2" y="1869"
        font-family="monospace" font-size="13" fill="#222">if</text> <text x="161.8" y="1895.95"
        font-family="monospace" font-size="13" fill="#222">+</text> <text x="451.9" y="1862.05"
        font-family="monospace" font-size="13" fill="#222">-</text>
        </g>
                <g>
                   <rect x="174" y="1904"
            width="443.4" height="30"
            rx="2" ry="2"
            style="fill:#C5E1A5; stroke:#444; stroke-width:1" />
                   <title>Swal.fire(&apos;Password error&apos;, &apos;They don&apos;t match!&apos;, &apos;error&apos;)</title>
            <text x="189" y="1924"
                font-family="monospace" font-size="13" fill="#222">
                <tspan x="189" y="1924">Swal.fire(&apos;Password error&apos;, &apos;They don&apos;t match!&apos;, &apos;...</tspan>
            </text>
                   
                   
                </g>
                <g>
                   <rect x="677.4" y="1904"
            width="326.4" height="30"
            rx="2" ry="2"
            style="fill:#C5E1A5; stroke:#444; stroke-width:1" />
                   <title>registerUser(name, username, password)</title>
            <text x="692.4" y="1924"
                font-family="monospace" font-size="13" fill="#222">
                <tspan x="692.4" y="1924">registerUser(name, username, password)</tspan>
            </text>
                   
                   
                </g>
                <g>
                   <rect x="677.4" y="1952.5"
            width="108" height="30"
            rx="2" ry="2"
            style="fill:#C5E1A5; stroke:#444; stroke-width:1" />
                   <title>.then(*())</title>
            <text x="692.4" y="1972.5"
                font-family="monospace" font-size="13" fill="#222">
                <tspan x="692.4" y="1972.5">.then(*())</tspan>
            </text>
                   <circle cx="683.4" cy="1976.5" r="4"
        style="fill:#ede7f6; stroke:#444; stroke-width:1" />
                   
                </g>
            <g>
                <rect x="714.4" y="2001"
            width="128" height="30"
            style="fill:#a5d6a7; stroke:#444; stroke-width:1" />
                    
                <line x1="724.4" y1="2001" x2="724.4" y2="2031"
                style="fill:#a5d6a7; stroke:#444; stroke-width:1" />
                <line x1="832.4" y1="2001" x2="832.4" y2="2031"
                style="fill:#a5d6a7; stroke:#444; stroke-width:1" />
             
                <title>(value) =&gt;</title>
            <text x="739.4" y="2021"
                font-family="monospace" font-size="13" fill="#222">
                <tspan x="739.4" y="2021">(value) =&gt;</tspan>
            </text>
                
            </g><g>
            <rect x="781.4" y="2064.5"
            width="114.6" height="30"
            rx="3" ry="3"
            style="fill:#ce93d8; stroke:#444; stroke-width:1" />                
            <polygon points="751.4,2079.5 781.4,2049.5 811.4,2079.5 781.4,2109.5"
            style="fill:#ce93d8; stroke:#444; stroke-width:1" />
            <title>(value)</title>
            <text x="826.4" y="2084.5"
                font-family="monospace" font-size="13" fill="#222">
                <tspan x="826.4" y="2084.5">(value)</tspan>
            </text>
            
            <text x="773.6" y="2084.5"
        font-family="monospace" font-size="13" fill="#222">if</text> <text x="789.1999999999999" y="2111.45"
        font-family="monospace" font-size="13" fill="#222">+</text> 
        </g>
                <g>
                   <rect x="801.4" y="2119.5"
            width="287.4" height="30"
            rx="2" ry="2"
            style="fill:#C5E1A5; stroke:#444; stroke-width:1" />
                   <title>this.props.history.push(&apos;/login&apos;)</title>
            <text x="816.4" y="2139.5"
                font-family="monospace" font-size="13" fill="#222">
                <tspan x="816.4" y="2139.5">this.props.history.push(&apos;/login&apos;)</tspan>
            </text>
                   
                   
                </g>
            <g>
                <rect x="87" y="2184.5"
            width="112.4" height="30"
            style="fill:#a5d6a7; stroke:#444; stroke-width:1" />
                    
                <line x1="97" y1="2184.5" x2="97" y2="2214.5"
                style="fill:#a5d6a7; stroke:#444; stroke-width:1" />
                <line x1="189.4" y1="2184.5" x2="189.4" y2="2214.5"
                style="fill:#a5d6a7; stroke:#444; stroke-width:1" />
             
                <title>render()</title>
            <text x="112" y="2204.5"
                font-family="monospace" font-size="13" fill="#222">
                <tspan x="112" y="2204.5">render()</tspan>
            </text>
                
            </g>
            <g>
                <rect x="124" y="2233"
            width="427.8" height="30"
            rx="3" ry="3"
            style="fill:#90caf9; stroke:#444; stroke-width:1" />
                
                <line x1="551.8" y1="2243" x2="556.8" y2="2243"
                style="fill:#a5d6a7; stroke:#444; stroke-width:1" />
                
                <line x1="551.8" y1="2253" x2="556.8" y2="2253"
                style="fill:#a5d6a7; stroke:#444; stroke-width:1" />

                <path d="M556.8, 2237 L572.8, 2248 L556.8, 2259 Z" 
        fill="#a5d6a7" stroke="#444" stroke-width="1" />
                             
                <title>return &lt;div className=&quot;Register&quot;&gt;
            &lt;div className=&quot;Reg-Header&quot;&gt;ADMIN REGISTER&lt;/div&gt;
            &lt;Link to=&quot;/&quot; className=&quot;goBack&quot;&gt;&lt;i&gt;&amp;larr;&lt;/i&gt; Back to home&lt;/Link&gt;
            &lt;Form onSubmit={this.verify}&gt;
            &lt;Form.Group controlId=&quot;name&quot; size=&quot;lg&quot;&gt;
                    &lt;Form.Label&gt;Name&lt;/Form.Label&gt;
                    &lt;Form.Control onChange={this.onChange} value={this.state.name} autoFocus name=&quot;name&quot; placeholder=&quot;Your Real Name&quot; required /&gt;
                &lt;/Form.Group&gt;
                &lt;Form.Group controlId=&quot;username&quot; size=&quot;lg&quot;&gt;
                    &lt;Form.Label&gt;Username&lt;/Form.Label&gt;
                    &lt;Form.Control onChange={this.onChange} value={this.state.username} name=&quot;username&quot; placeholder=&quot;Anything&quot; required /&gt;
                &lt;/Form.Group&gt;
                &lt;Form.Group controlId=&quot;password&quot; size=&quot;lg&quot;&gt;
                    &lt;Form.Label&gt;Password&lt;/Form.Label&gt;
                    &lt;Form.Control onChange={this.onChange} value={this.state.password} minLength=&quot;3&quot; name=&quot;password&quot; placeholder=&quot;Minimum 3 characters long&quot; required type=&quot;password&quot; /&gt;
                &lt;/Form.Group&gt;
                &lt;Form.Group controlId=&quot;retypedPassword&quot; size=&quot;lg&quot;&gt;
                    &lt;Form.Label&gt;Retype Password&lt;/Form.Label&gt;
                    &lt;Form.Control onChange={this.onChange} value={this.state.retypedPassword} minLength=&quot;3&quot; name=&quot;retypedPassword&quot; placeholder=&quot;Minimum 3 characters long&quot; required type=&quot;password&quot; /&gt;
                &lt;/Form.Group&gt;
                &lt;Button block size=&quot;lg&quot; type=&quot;submit&quot;&gt;Register&lt;/Button&gt;
            &lt;/Form&gt;
           
        &lt;/div&gt;</title>
            <text x="139" y="2253"
                font-family="monospace" font-size="13" fill="#222">
                <tspan x="139" y="2253">return &lt;div className=&quot;Register&quot;&gt;
            &lt;di...</tspan>
            </text>
                
            </g>
            <g>
                <rect x="50" y="2296.5"
            width="248.39999999999998" height="30"
            rx="3" ry="3"
            style="fill:#81d4fa; stroke:#444; stroke-width:1" />
                
                <line x1="298.4" y1="2306.5" x2="303.4" y2="2306.5"
                style="fill:#fff; stroke:#444; stroke-width:1" />
                
                <line x1="298.4" y1="2316.5" x2="303.4" y2="2316.5"
                style="fill:#fff; stroke:#444; stroke-width:1" />

                <path d="M303.4, 2297.5 L323.4, 2311.5 L303.4, 2325.5 Z" 
        fill="#fff" stroke="#444" stroke-width="1" />
                             
                <title>export default  Registration</title>
            <text x="65" y="2316.5"
                font-family="monospace" font-size="13" fill="#222">
                <tspan x="65" y="2316.5">export default  Registration</tspan>
            </text>
                
            </g>
            <g>
               <rect x="25" y="13.75"
            width="216.6" height="24"
            style="fill:#fff59d; stroke:#444; stroke-width:1" />
               <circle cx="25" cy="25" r="15"
        style="fill:#fff59d; stroke:#444; stroke-width:1" />
               <title>Program: source module</title>
            <text x="55" y="30"
                font-family="monospace" font-size="13" fill="#222">
                <tspan x="55" y="30">Program: source module</tspan>
            </text>
            </g>
            <g>
               <path d="M25, 40 L25 91 Q25 95
                29 95
                L42 95 "
        style="fill:none; stroke:#444; stroke-width:1" />
               <path d="M42, 92 L50, 95 L42, 98 Z" 
        fill="#333" />
            </g>
            <g>
               <path d="M68.5, 110 L68.5 139.5 Q68.5 143.5
                72.5 143.5
                L87 143.5 "
        style="fill:none; stroke:#444; stroke-width:1" />
               false
            </g>
            <g>
               <path d="M68.5, 110 L68.5 188 Q68.5 192
                72.5 192
                L87 192 "
        style="fill:none; stroke:#444; stroke-width:1" />
               false
            </g>
            <g>
               <path d="M25, 40 L25 251.5 Q25 255.5
                29 255.5
                L42 255.5 "
        style="fill:none; stroke:#444; stroke-width:1" />
               <path d="M42, 252.5 L50, 255.5 L42, 258.5 Z" 
        fill="#333" />
            </g>
            <g>
               <path d="M68.5, 270.5 L68.5 300 Q68.5 304
                72.5 304
                L87 304 "
        style="fill:none; stroke:#444; stroke-width:1" />
               false
            </g>
            <g>
               <path d="M25, 40 L25 363.5 Q25 367.5
                29 367.5
                L42 367.5 "
        style="fill:none; stroke:#444; stroke-width:1" />
               <path d="M42, 364.5 L50, 367.5 L42, 370.5 Z" 
        fill="#333" />
            </g>
            <g>
               <path d="M68.5, 382.5 L68.5 412 Q68.5 416
                72.5 416
                L87 416 "
        style="fill:none; stroke:#444; stroke-width:1" />
               false
            </g>
            <g>
               <path d="M68.5, 382.5 L68.5 460.5 Q68.5 464.5
                72.5 464.5
                L87 464.5 "
        style="fill:none; stroke:#444; stroke-width:1" />
               false
            </g>
            <g>
               <path d="M25, 40 L25 524 Q25 528
                29 528
                L42 528 "
        style="fill:none; stroke:#444; stroke-width:1" />
               <path d="M42, 525 L50, 528 L42, 531 Z" 
        fill="#333" />
            </g>
            <g>
               <path d="M25, 40 L25 572.5 Q25 576.5
                29 576.5
                L42 576.5 "
        style="fill:none; stroke:#444; stroke-width:1" />
               <path d="M42, 573.5 L50, 576.5 L42, 579.5 Z" 
        fill="#333" />
            </g>
            <g>
               <path d="M68.5, 591.5 L68.5 621 Q68.5 625
                72.5 625
                L87 625 "
        style="fill:none; stroke:#444; stroke-width:1" />
               false
            </g>
            <g>
               <path d="M25, 40 L25 684.5 Q25 688.5
                29 688.5
                L42 688.5 "
        style="fill:none; stroke:#444; stroke-width:1" />
               <path d="M42, 685.5 L50, 688.5 L42, 691.5 Z" 
        fill="#333" />
            </g>
            <g>
               <path d="M68.5, 703.5 L68.5 733 Q68.5 737
                72.5 737
                L87 737 "
        style="fill:none; stroke:#444; stroke-width:1" />
               false
            </g>
            <g>
               <path d="M25, 40 L25 796.5 Q25 800.5
                29 800.5
                L42 800.5 "
        style="fill:none; stroke:#444; stroke-width:1" />
               <path d="M42, 797.5 L50, 800.5 L42, 803.5 Z" 
        fill="#333" />
            </g>
            <g>
               <path d="M68.5, 815.5 L68.5 845 Q68.5 849
                72.5 849
                L79 849 "
        style="fill:none; stroke:#444; stroke-width:1" />
               <path d="M79, 846 L87, 849 L79, 852 Z" 
        fill="#333" />
            </g>
            <g>
               <path d="M105.5, 864 L105.5 893.5 Q105.5 897.5
                109.5 897.5
                L116 897.5 "
        style="fill:none; stroke:#444; stroke-width:1" />
               <path d="M116, 894.5 L124, 897.5 L116, 900.5 Z" 
        fill="#333" />
            </g>
            <g>
               <path d="M105.5, 864 L105.5 942 Q105.5 946
                109.5 946
                L116 946 "
        style="fill:none; stroke:#444; stroke-width:1" />
               <path d="M116, 943 L124, 946 L116, 949 Z" 
        fill="#333" />
            </g>
            <g>
               <path d="M142.5, 961 L142.5 990.5 Q142.5 994.5
                146.5 994.5
                L161 994.5 "
        style="fill:none; stroke:#444; stroke-width:1" />
               false
            </g>
            <g>
               <path d="M142.5, 961 L142.5 1039 Q142.5 1043
                146.5 1043
                L161 1043 "
        style="fill:none; stroke:#444; stroke-width:1" />
               false
            </g>
            <g>
               <path d="M142.5, 961 L142.5 1087.5 Q142.5 1091.5
                146.5 1091.5
                L161 1091.5 "
        style="fill:none; stroke:#444; stroke-width:1" />
               false
            </g>
            <g>
               <path d="M142.5, 961 L142.5 1136 Q142.5 1140
                146.5 1140
                L161 1140 "
        style="fill:none; stroke:#444; stroke-width:1" />
               false
            </g>
            <g>
               <path d="M68.5, 815.5 L68.5 1184.5 Q68.5 1188.5
                72.5 1188.5
                L79 1188.5 "
        style="fill:none; stroke:#444; stroke-width:1" />
               <path d="M79, 1185.5 L87, 1188.5 L79, 1191.5 Z" 
        fill="#333" />
            </g>
            <g>
               <path d="M68.5, 815.5 L68.5 1248 Q68.5 1252
                72.5 1252
                L79 1252 "
        style="fill:none; stroke:#444; stroke-width:1" />
               <path d="M79, 1249 L87, 1252 L79, 1255 Z" 
        fill="#333" />
            </g>
            <g>
               <path d="M105.5, 1267 L105.5 1296.5 Q105.5 1300.5
                109.5 1300.5
                L116 1300.5 "
        style="fill:none; stroke:#444; stroke-width:1" />
               <path d="M116, 1297.5 L124, 1300.5 L116, 1303.5 Z" 
        fill="#333" />
            </g>
            <g>
               <path d="M142.5, 1315.5 L142.5 1345 Q142.5 1349
                146.5 1349
                L153 1349 "
        style="fill:none; stroke:#444; stroke-width:1" />
               <path d="M153, 1346 L161, 1349 L153, 1352 Z" 
        fill="#333" />
            </g>
            <g>
               <path d="M179.5, 1364 L179.5 1393.5 Q179.5 1397.5
                183.5 1397.5
                L198 1397.5 "
        style="fill:none; stroke:#444; stroke-width:1" />
               false
            </g>
            <g>
               <path d="M68.5, 815.5 L68.5 1442 Q68.5 1446
                72.5 1446
                L79 1446 "
        style="fill:none; stroke:#444; stroke-width:1" />
               <path d="M79, 1443 L87, 1446 L79, 1449 Z" 
        fill="#333" />
            </g>
            <g>
               <path d="M68.5, 815.5 L68.5 1505.5 Q68.5 1509.5
                72.5 1509.5
                L79 1509.5 "
        style="fill:none; stroke:#444; stroke-width:1" />
               <path d="M79, 1506.5 L87, 1509.5 L79, 1512.5 Z" 
        fill="#333" />
            </g>
            <g>
               <path d="M105.5, 1524.5 L105.5 1554 Q105.5 1558
                109.5 1558
                L116 1558 "
        style="fill:none; stroke:#444; stroke-width:1" />
               <path d="M116, 1555 L124, 1558 L116, 1561 Z" 
        fill="#333" />
            </g>
            <g>
               <path d="M105.5, 1524.5 L105.5 1602.5 Q105.5 1606.5
                109.5 1606.5
                L116 1606.5 "
        style="fill:none; stroke:#444; stroke-width:1" />
               <path d="M116, 1603.5 L124, 1606.5 L116, 1609.5 Z" 
        fill="#333" />
            </g>
            <g>
               <path d="M142.5, 1621.5 L142.5 1651 Q142.5 1655
                146.5 1655
                L161 1655 "
        style="fill:none; stroke:#444; stroke-width:1" />
               false
            </g>
            <g>
               <path d="M142.5, 1621.5 L142.5 1699.5 Q142.5 1703.5
                146.5 1703.5
                L161 1703.5 "
        style="fill:none; stroke:#444; stroke-width:1" />
               false
            </g>
            <g>
               <path d="M142.5, 1621.5 L142.5 1748 Q142.5 1752
                146.5 1752
                L161 1752 "
        style="fill:none; stroke:#444; stroke-width:1" />
               false
            </g>
            <g>
               <path d="M142.5, 1621.5 L142.5 1796.5 Q142.5 1800.5
                146.5 1800.5
                L161 1800.5 "
        style="fill:none; stroke:#444; stroke-width:1" />
               false
            </g>
            <g>
               <path d="M105.5, 1524.5 L105.5 1860 Q105.5 1864
                109.5 1864
                L116 1864 "
        style="fill:none; stroke:#444; stroke-width:1" />
               <path d="M116, 1861 L124, 1864 L116, 1867 Z" 
        fill="#333" />
            </g>
            <g>
               <path d="M154, 1894 L154 1915 Q154 1919
                158 1919
                L166 1919 "
        style="fill:none; stroke:#444; stroke-width:1" />
               <path d="M166, 1916 L174, 1919 L166, 1922 Z" 
        fill="#333" />
            </g>
            <g>
               <path d="M448, 1864 L653.4 1864  Q657.4 1864
                657.4 1868
                L657.4 1911 Q657.4 1919
                661.4 1919
                L669.4 1919 "
        style="fill:none; stroke:#444; stroke-width:1" />
               <path d="M669.4, 1916 L677.4, 1919 L669.4, 1922 Z" 
        fill="#333" />
            </g>
            <g>
               <path d="M448, 1864 L653.4 1864  Q657.4 1864
                657.4 1868
                L657.4 1959.5 Q657.4 1967.5
                661.4 1967.5
                L669.4 1967.5 "
        style="fill:none; stroke:#444; stroke-width:1" />
               <path d="M669.4, 1964.5 L677.4, 1967.5 L669.4, 1970.5 Z" 
        fill="#333" />
            </g>
            <g>
               <path d="M695.9, 1982.5 L695.9 2012 Q695.9 2016
                699.9 2016
                L714.4 2016 "
        style="fill:none; stroke:#444; stroke-width:1" />
               false
            </g>
            <g>
               <path d="M732.9, 2031 L732.9 2075.5 Q732.9 2079.5
                736.9 2079.5
                L743.4 2079.5 "
        style="fill:none; stroke:#444; stroke-width:1" />
               <path d="M743.4, 2076.5 L751.4, 2079.5 L743.4, 2082.5 Z" 
        fill="#333" />
            </g>
            <g>
               <path d="M781.4, 2109.5 L781.4 2130.5 Q781.4 2134.5
                785.4 2134.5
                L793.4 2134.5 "
        style="fill:none; stroke:#444; stroke-width:1" />
               <path d="M793.4, 2131.5 L801.4, 2134.5 L793.4, 2137.5 Z" 
        fill="#333" />
            </g>
            <g>
               <path d="M68.5, 815.5 L68.5 2195.5 Q68.5 2199.5
                72.5 2199.5
                L79 2199.5 "
        style="fill:none; stroke:#444; stroke-width:1" />
               <path d="M79, 2196.5 L87, 2199.5 L79, 2202.5 Z" 
        fill="#333" />
            </g>
            <g>
               <path d="M105.5, 2214.5 L105.5 2244 Q105.5 2248
                109.5 2248
                L116 2248 "
        style="fill:none; stroke:#444; stroke-width:1" />
               <path d="M116, 2245 L124, 2248 L116, 2251 Z" 
        fill="#333" />
            </g>
            <g>
               <path d="M25, 40 L25 2307.5 Q25 2311.5
                29 2311.5
                L42 2311.5 "
        style="fill:none; stroke:#444; stroke-width:1" />
               <path d="M42, 2308.5 L50, 2311.5 L42, 2314.5 Z" 
        fill="#333" />
            </g>
            </svg>